<mxfile>
    <diagram id="YzWGq-_wtU5fIdpU57x1" name="Page-1">
        <mxGraphModel dx="1223" dy="728" grid="1" gridSize="10" guides="1" tooltips="1" connect="1" arrows="1" fold="1" page="1" pageScale="1" pageWidth="1169" pageHeight="827" math="0" shadow="0">
            <root>
                <mxCell id="0"/>
                <mxCell id="1" parent="0"/>
                <mxCell id="47" value="" style="group;sketch=1;fillOpacity=0;fontColor=#6EA31D;labelBackgroundColor=none;" parent="1" vertex="1" connectable="0">
                    <mxGeometry x="130" y="60" width="320" height="320" as="geometry"/>
                </mxCell>
                <mxCell id="2" value="&lt;font style=&quot;font-size: 18px&quot;&gt;if-elif-else&lt;/font&gt;" style="text;html=1;align=center;verticalAlign=middle;resizable=0;points=[];autosize=1;sketch=1;fillOpacity=0;fontColor=#6EA31D;labelBackgroundColor=none;" parent="47" vertex="1">
                    <mxGeometry x="100" width="90" height="20" as="geometry"/>
                </mxCell>
                <mxCell id="19" value="" style="edgeStyle=orthogonalEdgeStyle;rounded=0;orthogonalLoop=1;jettySize=auto;html=1;strokeColor=#FF8000;sketch=1;fillOpacity=0;fontColor=#6EA31D;labelBackgroundColor=none;" parent="47" target="3" edge="1">
                    <mxGeometry relative="1" as="geometry">
                        <mxPoint x="60" y="20" as="sourcePoint"/>
                    </mxGeometry>
                </mxCell>
                <mxCell id="3" value="result is a video?" style="whiteSpace=wrap;html=1;strokeColor=#FF8000;sketch=1;fillOpacity=0;fontColor=#6EA31D;labelBackgroundColor=none;" parent="47" vertex="1">
                    <mxGeometry y="60" width="120" height="60" as="geometry"/>
                </mxCell>
                <mxCell id="4" value="result is a song?" style="whiteSpace=wrap;html=1;strokeColor=#FF8000;sketch=1;fillOpacity=0;fontColor=#6EA31D;labelBackgroundColor=none;" parent="47" vertex="1">
                    <mxGeometry y="160" width="120" height="60" as="geometry"/>
                </mxCell>
                <mxCell id="5" value="no" style="edgeStyle=orthogonalEdgeStyle;rounded=0;orthogonalLoop=1;jettySize=auto;html=1;align=right;strokeColor=#FF8000;sketch=1;fillOpacity=0;fontColor=#6EA31D;labelBackgroundColor=none;" parent="47" source="3" target="4" edge="1">
                    <mxGeometry relative="1" as="geometry"/>
                </mxCell>
                <mxCell id="6" value="do something else" style="whiteSpace=wrap;html=1;strokeColor=#FF8000;sketch=1;fillOpacity=0;fontColor=#6EA31D;labelBackgroundColor=none;" parent="47" vertex="1">
                    <mxGeometry y="260" width="120" height="60" as="geometry"/>
                </mxCell>
                <mxCell id="7" value="no" style="edgeStyle=orthogonalEdgeStyle;rounded=0;orthogonalLoop=1;jettySize=auto;html=1;align=right;strokeColor=#FF8000;sketch=1;fillOpacity=0;fontColor=#6EA31D;labelBackgroundColor=none;" parent="47" source="4" target="6" edge="1">
                    <mxGeometry relative="1" as="geometry"/>
                </mxCell>
                <mxCell id="8" value="do (some video processing step)" style="whiteSpace=wrap;html=1;strokeColor=#FF8000;sketch=1;fillOpacity=0;fontColor=#6EA31D;labelBackgroundColor=none;" parent="47" vertex="1">
                    <mxGeometry x="200" y="60" width="120" height="60" as="geometry"/>
                </mxCell>
                <mxCell id="9" value="Yes&lt;br&gt;&amp;nbsp;" style="edgeStyle=orthogonalEdgeStyle;rounded=0;orthogonalLoop=1;jettySize=auto;html=1;strokeColor=#FF8000;sketch=1;fillOpacity=0;fontColor=#6EA31D;labelBackgroundColor=none;" parent="47" source="3" target="8" edge="1">
                    <mxGeometry relative="1" as="geometry"/>
                </mxCell>
                <mxCell id="10" value="do (some song processing step)" style="whiteSpace=wrap;html=1;strokeColor=#FF8000;sketch=1;fillOpacity=0;fontColor=#6EA31D;labelBackgroundColor=none;" parent="47" vertex="1">
                    <mxGeometry x="200" y="160" width="120" height="60" as="geometry"/>
                </mxCell>
                <mxCell id="11" value="yes&lt;br&gt;&amp;nbsp;" style="edgeStyle=orthogonalEdgeStyle;rounded=0;orthogonalLoop=1;jettySize=auto;html=1;strokeColor=#FF8000;sketch=1;fillOpacity=0;fontColor=#6EA31D;labelBackgroundColor=none;" parent="47" source="4" target="10" edge="1">
                    <mxGeometry relative="1" as="geometry"/>
                </mxCell>
                <mxCell id="48" value="" style="group;sketch=1;fillOpacity=0;fontColor=#6EA31D;labelBackgroundColor=none;" parent="1" vertex="1" connectable="0">
                    <mxGeometry x="285" y="350" width="540" height="305" as="geometry"/>
                </mxCell>
                <mxCell id="20" value="&lt;font style=&quot;font-size: 18px&quot;&gt;For loop&lt;/font&gt;" style="text;html=1;align=center;verticalAlign=middle;resizable=0;points=[];autosize=1;sketch=1;fillOpacity=0;fontColor=#6EA31D;labelBackgroundColor=none;" parent="48" vertex="1">
                    <mxGeometry x="220" width="80" height="20" as="geometry"/>
                </mxCell>
                <mxCell id="27" value="exit&lt;br&gt;&amp;nbsp;" style="edgeStyle=orthogonalEdgeStyle;rounded=0;orthogonalLoop=1;jettySize=auto;html=1;strokeColor=#FF8000;sketch=1;fillOpacity=0;fontColor=#6EA31D;labelBackgroundColor=none;" parent="48" source="21" edge="1">
                    <mxGeometry relative="1" as="geometry">
                        <mxPoint x="250" y="90" as="targetPoint"/>
                    </mxGeometry>
                </mxCell>
                <mxCell id="29" value="" style="edgeStyle=orthogonalEdgeStyle;rounded=0;orthogonalLoop=1;jettySize=auto;html=1;strokeColor=#FF8000;sketch=1;fillOpacity=0;fontColor=#6EA31D;labelBackgroundColor=none;" parent="48" target="21" edge="1">
                    <mxGeometry relative="1" as="geometry">
                        <mxPoint x="110" y="20" as="sourcePoint"/>
                    </mxGeometry>
                </mxCell>
                <mxCell id="21" value="for result in search results" style="whiteSpace=wrap;html=1;strokeColor=#FF8000;sketch=1;fillOpacity=0;fontColor=#6EA31D;labelBackgroundColor=none;" parent="48" vertex="1">
                    <mxGeometry x="50" y="60" width="120" height="60" as="geometry"/>
                </mxCell>
                <mxCell id="24" style="edgeStyle=orthogonalEdgeStyle;rounded=0;orthogonalLoop=1;jettySize=auto;html=1;entryX=0;entryY=0.5;entryDx=0;entryDy=0;strokeColor=#FF8000;sketch=1;fillOpacity=0;fontColor=#6EA31D;labelBackgroundColor=none;" parent="48" source="22" target="21" edge="1">
                    <mxGeometry relative="1" as="geometry">
                        <Array as="points">
                            <mxPoint y="230"/>
                            <mxPoint y="90"/>
                        </Array>
                    </mxGeometry>
                </mxCell>
                <mxCell id="22" value="print result details" style="whiteSpace=wrap;html=1;strokeColor=#FF8000;sketch=1;fillOpacity=0;fontColor=#6EA31D;labelBackgroundColor=none;" parent="48" vertex="1">
                    <mxGeometry x="50" y="200" width="120" height="60" as="geometry"/>
                </mxCell>
                <mxCell id="23" value="" style="edgeStyle=orthogonalEdgeStyle;rounded=0;orthogonalLoop=1;jettySize=auto;html=1;strokeColor=#FF8000;sketch=1;fillOpacity=0;fontColor=#6EA31D;labelBackgroundColor=none;" parent="48" source="21" target="22" edge="1">
                    <mxGeometry relative="1" as="geometry"/>
                </mxCell>
                <mxCell id="31" value="exit&lt;br&gt;&amp;nbsp;" style="edgeStyle=orthogonalEdgeStyle;rounded=0;orthogonalLoop=1;jettySize=auto;html=1;strokeColor=#FF8000;sketch=1;fillOpacity=0;fontColor=#6EA31D;labelBackgroundColor=none;" parent="48" source="33" edge="1">
                    <mxGeometry relative="1" as="geometry">
                        <mxPoint x="540" y="90" as="targetPoint"/>
                    </mxGeometry>
                </mxCell>
                <mxCell id="32" value="" style="edgeStyle=orthogonalEdgeStyle;rounded=0;orthogonalLoop=1;jettySize=auto;html=1;strokeColor=#FF8000;sketch=1;fillOpacity=0;fontColor=#6EA31D;labelBackgroundColor=none;" parent="48" target="33" edge="1">
                    <mxGeometry relative="1" as="geometry">
                        <mxPoint x="400" y="20" as="sourcePoint"/>
                    </mxGeometry>
                </mxCell>
                <mxCell id="33" value="for i in range(len(results)" style="whiteSpace=wrap;html=1;direction=west;strokeColor=#FF8000;sketch=1;fillOpacity=0;fontColor=#6EA31D;labelBackgroundColor=none;" parent="48" vertex="1">
                    <mxGeometry x="340" y="60" width="120" height="60" as="geometry"/>
                </mxCell>
                <mxCell id="34" style="edgeStyle=orthogonalEdgeStyle;rounded=0;orthogonalLoop=1;jettySize=auto;html=1;entryX=1;entryY=0.5;entryDx=0;entryDy=0;strokeColor=#FF8000;sketch=1;fillOpacity=0;fontColor=#6EA31D;labelBackgroundColor=none;" parent="48" source="35" target="33" edge="1">
                    <mxGeometry relative="1" as="geometry">
                        <Array as="points">
                            <mxPoint x="290" y="230"/>
                            <mxPoint x="290" y="90"/>
                        </Array>
                    </mxGeometry>
                </mxCell>
                <mxCell id="35" value="print result[i] details" style="whiteSpace=wrap;html=1;direction=west;strokeColor=#FF8000;sketch=1;fillOpacity=0;fontColor=#6EA31D;labelBackgroundColor=none;" parent="48" vertex="1">
                    <mxGeometry x="340" y="200" width="120" height="60" as="geometry"/>
                </mxCell>
                <mxCell id="30" value="" style="edgeStyle=orthogonalEdgeStyle;rounded=0;orthogonalLoop=1;jettySize=auto;html=1;strokeColor=#FF8000;sketch=1;fillOpacity=0;fontColor=#6EA31D;labelBackgroundColor=none;" parent="48" source="33" target="35" edge="1">
                    <mxGeometry relative="1" as="geometry"/>
                </mxCell>
                <mxCell id="36" value="(prefer this)" style="text;html=1;align=center;verticalAlign=middle;resizable=0;points=[];autosize=1;sketch=1;fillOpacity=0;fontColor=#6EA31D;labelBackgroundColor=none;" parent="48" vertex="1">
                    <mxGeometry x="60" y="280" width="80" height="20" as="geometry"/>
                </mxCell>
                <mxCell id="37" value="(use this if only if you're actually using&lt;br&gt;a range statement in your code)" style="text;html=1;align=center;verticalAlign=middle;resizable=0;points=[];autosize=1;sketch=1;fillOpacity=0;fontColor=#6EA31D;labelBackgroundColor=none;" parent="48" vertex="1">
                    <mxGeometry x="300" y="275" width="220" height="30" as="geometry"/>
                </mxCell>
                <mxCell id="51" value="" style="group" vertex="1" connectable="0" parent="1">
                    <mxGeometry x="670" y="40" width="340" height="300" as="geometry"/>
                </mxCell>
                <mxCell id="50" value="" style="edgeStyle=orthogonalEdgeStyle;rounded=0;orthogonalLoop=1;jettySize=auto;html=1;labelBackgroundColor=none;strokeColor=#FF8000;sketch=1;" edge="1" parent="51" target="38">
                    <mxGeometry relative="1" as="geometry">
                        <mxPoint x="130" as="sourcePoint"/>
                    </mxGeometry>
                </mxCell>
                <mxCell id="38" value="read data from file" style="whiteSpace=wrap;html=1;strokeColor=#FF8000;sketch=1;fillOpacity=0;fontColor=#6EA31D;labelBackgroundColor=none;" parent="51" vertex="1">
                    <mxGeometry x="70" y="40" width="120" height="60" as="geometry"/>
                </mxCell>
                <mxCell id="43" style="edgeStyle=orthogonalEdgeStyle;rounded=0;orthogonalLoop=1;jettySize=auto;html=1;entryX=0;entryY=0.5;entryDx=0;entryDy=0;exitX=0;exitY=0.5;exitDx=0;exitDy=0;strokeColor=#FF8000;sketch=1;fillOpacity=0;fontColor=#6EA31D;labelBackgroundColor=none;" parent="51" source="41" target="38" edge="1">
                    <mxGeometry y="40" as="geometry">
                        <Array as="points">
                            <mxPoint y="270"/>
                            <mxPoint y="70"/>
                        </Array>
                    </mxGeometry>
                </mxCell>
                <mxCell id="44" value="no/exit&lt;br&gt;&amp;nbsp;" style="edgeStyle=orthogonalEdgeStyle;rounded=0;orthogonalLoop=1;jettySize=auto;html=1;strokeColor=#FF8000;sketch=1;fillOpacity=0;fontColor=#6EA31D;labelBackgroundColor=none;" parent="51" source="39" edge="1">
                    <mxGeometry y="40" as="geometry">
                        <mxPoint x="280" y="170" as="targetPoint"/>
                    </mxGeometry>
                </mxCell>
                <mxCell id="39" value="data returned?" style="whiteSpace=wrap;html=1;strokeColor=#FF8000;sketch=1;fillOpacity=0;fontColor=#6EA31D;labelBackgroundColor=none;" parent="51" vertex="1">
                    <mxGeometry x="70" y="140" width="120" height="60" as="geometry"/>
                </mxCell>
                <mxCell id="40" value="" style="edgeStyle=orthogonalEdgeStyle;rounded=0;orthogonalLoop=1;jettySize=auto;html=1;strokeColor=#FF8000;sketch=1;fillOpacity=0;fontColor=#6EA31D;labelBackgroundColor=none;" parent="51" source="38" target="39" edge="1">
                    <mxGeometry y="40" as="geometry"/>
                </mxCell>
                <mxCell id="41" value="so something with&lt;br&gt;&amp;nbsp;the data" style="whiteSpace=wrap;html=1;strokeColor=#FF8000;sketch=1;fillOpacity=0;fontColor=#6EA31D;labelBackgroundColor=none;" parent="51" vertex="1">
                    <mxGeometry x="70" y="240" width="120" height="60" as="geometry"/>
                </mxCell>
                <mxCell id="42" value="yes" style="edgeStyle=orthogonalEdgeStyle;rounded=0;orthogonalLoop=1;jettySize=auto;html=1;align=right;strokeColor=#FF8000;sketch=1;fillOpacity=0;fontColor=#6EA31D;labelBackgroundColor=none;" parent="51" source="39" target="41" edge="1">
                    <mxGeometry y="40" as="geometry"/>
                </mxCell>
                <mxCell id="45" value="&lt;font style=&quot;font-size: 18px&quot;&gt;While loops&lt;/font&gt;" style="text;html=1;align=center;verticalAlign=middle;resizable=0;points=[];autosize=1;sketch=1;fillOpacity=0;fontColor=#6EA31D;labelBackgroundColor=none;" parent="51" vertex="1">
                    <mxGeometry x="230" y="40" width="110" height="20" as="geometry"/>
                </mxCell>
            </root>
        </mxGraphModel>
    </diagram>
</mxfile>